<?xml version="1.0" encoding="iso-8859-1"?>
<!-- Generator: Adobe Illustrator 19.0.0, SVG Export Plug-In . SVG Version: 6.00 Build 0)  -->
<svg version="1.1" id="Layer_1" xmlns="http://www.w3.org/2000/svg" xmlns:xlink="http://www.w3.org/1999/xlink" x="0px" y="0px"
	 viewBox="0 0 511.989 511.989" style="enable-background:new 0 0 511.989 511.989;" xml:space="preserve">
<g>
	<path style="fill:#FFCE54;" d="M159.994,457.893L159.994,457.893c0,5.906,4.781,10.688,10.656,10.688
		c5.906,0,10.672-4.781,10.672-10.688l0,0v-21.312h-21.328V457.893z"/>
	<path style="fill:#FFCE54;" d="M373.317,463.081v20c0,5.875,4.781,10.656,10.672,10.656c5.89,0,10.655-4.781,10.655-10.656v-20
		H373.317z"/>
</g>
<g>
	<rect x="373.312" y="110.205" style="fill:#8CC153;" width="21.327" height="45.09"/>
	<rect x="159.992" y="202.215" style="fill:#8CC153;" width="21.328" height="45.11"/>
</g>
<g>
	<path style="fill:#A0D468;" d="M383.989,148.674c-104.529,0-62.718,323.719,0,323.719S488.517,148.674,383.989,148.674z"/>
	<path style="fill:#A0D468;" d="M170.65,233.938c-85.717,0-51.421,213.268,0,213.268
		C222.087,447.206,256.367,233.938,170.65,233.938z"/>
</g>
<g>
	<path style="fill:#8CC153;" d="M329.803,50.957c-16.922-29.233-51.171-40.749-79.686-26.812
		c-24.765,12.109-35.062,42.108-22.952,66.873c4.89,9.984,13.452,17.344,24.108,20.734c9.719,3.078,20.766,2.75,31.124-0.922
		c7.344-2.609,14.266-9.906,17.218-18.172c2.844-7.953,2.031-16.343-2.218-23.687c-0.031-0.047-0.062-0.094-0.094-0.141
		c-0.062-0.109-0.125-0.219-0.188-0.328l0,0c-1.875-3.094-5.25-5.156-9.125-5.156c-5.906,0-10.672,4.781-10.672,10.671
		c0,2.016,0.578,3.906,1.547,5.516l0,0c1.172,1.953,1.391,3.718,0.719,5.765c-1,3.016-3.484,5.078-4.312,5.422
		c-10.062,3.562-23.405,2.25-28.937-9.078c-6.953-14.203-1.047-31.39,13.156-38.343c9.125-4.453,19.015-4.984,28.624-1.531
		c9.53,3.406,17.78,10.469,23.218,19.875c8.078,13.968,14.5,36.108-22.983,66.999l13.562,16.453
		c17.984-14.812,29.531-30.187,34.297-45.671C341.209,83.238,339.037,66.926,329.803,50.957z"/>
	<path style="fill:#8CC153;" d="M458.315,265.905c0,5.891-4.765,10.68-10.671,10.68c-5.875,0-10.656-4.789-10.656-10.68
		s4.781-10.656,10.656-10.656C453.551,255.249,458.315,260.015,458.315,265.905z"/>
	<path style="fill:#8CC153;" d="M234.648,329.896c0,5.906-4.766,10.688-10.655,10.688c-5.891,0-10.672-4.781-10.672-10.688
		c0-5.875,4.781-10.656,10.672-10.656C229.883,319.24,234.648,324.021,234.648,329.896z"/>
	<path style="fill:#8CC153;" d="M138.65,287.304c0,5.875-4.765,10.656-10.655,10.656c-5.89,0-10.672-4.781-10.672-10.656
		c0-5.906,4.781-10.688,10.672-10.688C133.886,276.616,138.65,281.397,138.65,287.304z"/>
	<path style="fill:#8CC153;" d="M138.65,372.583c0,5.875-4.765,10.656-10.655,10.656c-5.89,0-10.672-4.781-10.672-10.656
		c0-5.906,4.781-10.688,10.672-10.688C133.886,361.895,138.65,366.677,138.65,372.583z"/>
	<path style="fill:#8CC153;" d="M170.65,308.585c0,5.874-4.766,10.655-10.656,10.655s-10.672-4.781-10.672-10.655
		c0-5.906,4.781-10.688,10.672-10.688S170.65,302.679,170.65,308.585z"/>
	<path style="fill:#8CC153;" d="M191.993,383.239c0,5.906-4.781,10.656-10.671,10.656c-5.891,0-10.672-4.75-10.672-10.656
		c0-5.875,4.781-10.656,10.672-10.656C187.212,372.583,191.993,377.364,191.993,383.239z"/>
	<path style="fill:#8CC153;" d="M405.316,355.083c0,5.875-4.766,10.656-10.672,10.656c-5.874,0-10.655-4.781-10.655-10.656
		c0-5.906,4.781-10.687,10.655-10.687C400.551,344.396,405.316,349.177,405.316,355.083z"/>
	<path style="fill:#8CC153;" d="M351.99,397.739c0,5.875-4.781,10.656-10.672,10.656s-10.672-4.781-10.672-10.656
		c0-5.906,4.781-10.656,10.672-10.656S351.99,391.833,351.99,397.739z"/>
	<path style="fill:#8CC153;" d="M437.316,419.082c0,5.875-4.766,10.656-10.672,10.656c-5.875,0-10.656-4.781-10.656-10.656
		c0-5.906,4.781-10.687,10.656-10.687C432.551,408.395,437.316,413.176,437.316,419.082z"/>
	<path style="fill:#8CC153;" d="M351.99,180.673c0,5.891-4.781,10.672-10.672,10.672s-10.672-4.781-10.672-10.672
		s4.781-10.656,10.672-10.656S351.99,174.783,351.99,180.673z"/>
	<path style="fill:#8CC153;" d="M415.988,223.25c0,5.891-4.781,10.656-10.672,10.656s-10.672-4.766-10.672-10.656
		s4.781-10.671,10.672-10.671S415.988,217.36,415.988,223.25z"/>
	<path style="fill:#8CC153;" d="M373.317,265.905c0,5.891-4.766,10.68-10.671,10.68c-5.875,0-10.656-4.789-10.656-10.68
		s4.781-10.656,10.656-10.656C368.552,255.249,373.317,260.015,373.317,265.905z"/>
</g>
<path style="fill:#A0D468;" d="M509.08,152.065l0.016-0.016c-1.141-1.203-28.328-29.828-73.107-44.327
	c-26.484-8.578-53.624-10.438-80.654-5.531c-33.406,6.062-66.562,22.531-98.545,48.937c-28.952,23.89-59.437,38.796-90.576,44.28
	c-24.812,4.375-50.218,2.828-75.529-4.578c-43.75-12.812-72.483-39.046-72.78-39.312v0.016c-1.906-1.766-4.438-2.859-7.25-2.859
	C4.78,148.675,0,153.456,0,159.347c0,3.094,1.312,5.859,3.405,7.796v0.016c1.281,1.203,32.109,29.515,80.437,43.89
	c18.187,5.406,36.452,8.125,54.592,8.125c10.375,0,20.688-0.891,30.906-2.656c35.03-6.047,69.014-22.515,101.029-48.937
	c28.967-23.906,58.654-38.812,88.248-44.296c23.421-4.344,46.967-2.844,69.967,4.469c39.827,12.656,64.717,38.64,64.951,38.89h0.016
	c1.938,2.062,4.703,3.375,7.766,3.375c5.891,0,10.672-4.781,10.672-10.671C511.986,156.518,510.877,153.971,509.08,152.065z"/>
<g>
</g>
<g>
</g>
<g>
</g>
<g>
</g>
<g>
</g>
<g>
</g>
<g>
</g>
<g>
</g>
<g>
</g>
<g>
</g>
<g>
</g>
<g>
</g>
<g>
</g>
<g>
</g>
<g>
</g>
</svg>
