<svg id="Layer_1" data-name="Layer 1" xmlns="http://www.w3.org/2000/svg" viewBox="0 0 500 500"><defs><style>.cls-1{fill:#74bc17;}.cls-2{fill:#679b16;}.cls-3{fill:#e2e2e2;}.cls-4{fill:#cecece;}.cls-5,.cls-6{fill:none;stroke-linecap:round;stroke-linejoin:round;stroke-width:15px;}.cls-5{stroke:#c1c1c1;}.cls-6{stroke:#000;}</style></defs><title>radish</title><path class="cls-1" d="M328.19,171.64a110.74,110.74,0,0,1,13.32,16.1l124.92-125L437,33.29l-124.91,125A111.31,111.31,0,0,1,328.19,171.64Z"/><path class="cls-2" d="M301.57,152a111.69,111.69,0,0,1,10.54,6.36l36.63-36.67L398.2,27.17,361.36,7.86l-51,97.42Z"/><path class="cls-1" d="M301.57,152l23-122.3-40.87-7.71L261.54,139.77A110.56,110.56,0,0,1,301.57,152Z"/><path class="cls-1" d="M347.87,198.29a110.58,110.58,0,0,0-6.36-10.55l36.64-36.67,94.39-49.49,19.3,36.87-97.35,51Z"/><path class="cls-2" d="M347.87,198.29l122.2-23,7.7,40.91L360,238.35A110.68,110.68,0,0,0,347.87,198.29Z"/><path class="cls-3" d="M328.19,328.53A110.89,110.89,0,0,0,171.44,171.64h0C6.23,337,17.63,383.51,17,426.44c-.15,10.74-2.87,22.3-6.88,33.6C2.93,480.42,19.68,497.18,40,490c11.29-4,22.84-6.74,33.56-6.89,42.9-.59,89.38,10.82,254.59-154.53Z"/><path class="cls-4" d="M331.78,175.41a111,111,0,0,1-28.18,109h0C138.39,449.8,91.91,438.38,49,439c-10.72.15-22.27,2.88-33.56,6.89l-1.15.36A141.17,141.17,0,0,1,10.15,460C2.93,480.42,19.68,497.18,40,490c11.29-4,22.84-6.74,33.56-6.89,42.9-.59,89.38,10.82,254.59-154.53h0A111,111,0,0,0,331.78,175.41Z"/><path class="cls-5" d="M155.54,187.74S186.29,228.8,209.35,250"/><path class="cls-5" d="M135.52,386s33.17,45.29,56.63,60.15"/><path class="cls-6" d="M328.19,171.64a110.74,110.74,0,0,1,13.32,16.1l124.92-125L437,33.29l-124.91,125A111.31,111.31,0,0,1,328.19,171.64Z"/><path class="cls-6" d="M301.57,152a111.69,111.69,0,0,1,10.54,6.36l36.63-36.67L398.2,27.17,361.36,7.86l-51,97.42Z"/><path class="cls-6" d="M301.57,152l23-122.3-40.87-7.71L261.54,139.77A110.56,110.56,0,0,1,301.57,152Z"/><path class="cls-6" d="M347.87,198.29a110.58,110.58,0,0,0-6.36-10.55l36.64-36.67,94.39-49.49,19.3,36.87-97.35,51Z"/><path class="cls-6" d="M347.87,198.29l122.2-23,7.7,40.91L360,238.35A110.68,110.68,0,0,0,347.87,198.29Z"/><line class="cls-5" x1="212.14" y1="368.64" x2="242.98" y2="407.54"/><line class="cls-5" x1="115.48" y1="230.43" x2="135.52" y2="256.1"/><path class="cls-6" d="M328.19,328.53A110.89,110.89,0,0,0,171.44,171.64h0C6.23,337,17.63,383.51,17,426.44c-.15,10.74-2.87,22.3-6.88,33.6C2.93,480.42,19.68,497.18,40,490c11.29-4,22.84-6.74,33.56-6.89,42.9-.59,89.38,10.82,254.59-154.53Z"/></svg>