<svg class="svg-icon" style="width: 1em; height: 1em;vertical-align: middle;fill: currentColor;overflow: hidden;" viewBox="0 0 1024 1024" version="1.1" xmlns="http://www.w3.org/2000/svg"><path d="M512 820.2s26.2-68.2 27.8-88c4.2-56.4 37-106.2 85.8-134.6 115.6-67.6 98.8-200.4 98.8-200.4 0-129.8-98.6-193.4-175.4-193.4h-74.2c-76.8 0-175.4 63.6-175.4 193.4 0 0-16.8 132.8 98.8 200.4 48.8 28.4 81.6 78.4 85.8 134.6 1.8 19.8 28 88 28 88z" fill="#7DAC51" /><path d="M475 203.8c-76.8 0-175.4 63.6-175.4 193.4 0 0-16.8 132.8 98.8 200.4 48.8 28.4 81.6 78.4 85.8 134.6 1.4 19.8 27.8 88 27.8 88V203.8h-37z" fill="#5B7C31" /><path d="M512 834.2c-5.8 0-11-3.6-13-9-2.8-7.2-27-70.8-28.6-92-3.8-50.8-33.2-97-79-123.6-50.6-29.6-85-76-99.4-134.2-10-40.2-7-73-6.4-79 0.4-142.4 110.8-206.6 189.4-206.6h74.2c78.6 0 189 64 189.4 206.6 0.6 6 3.4 38.8-6.4 79-14.4 58.2-48.6 104.6-99.4 134.2-45.6 26.6-75.2 72.8-79 123.6-1.6 21.2-25.8 84.8-28.6 92-2.2 5.4-7.4 9-13.2 9z m-37-616.4c-67 0-161.4 55.6-161.4 179.4 0 0.6 0 1.2-0.2 1.8 0 0.2-3.8 31.8 6 70.6 12.8 51 41.8 90 86 115.8 53.6 31.4 88.2 85.8 92.8 145.6 0.6 7.8 6.8 28 13.8 48.2 7-20.2 13.2-40.2 13.8-48.2 4.4-60 39.2-114.4 92.8-145.6 106.4-62.2 92.2-185.2 92-186.4 0-0.6-0.2-1.2-0.2-1.8 0-123.8-94.4-179.4-161.4-179.4h-74z" fill="#463218" /><path d="M512 834.2c-7.8 0-14-6.2-14-14v-572c0-7.8 6.2-14 14-14s14 6.2 14 14V820c0 7.8-6.2 14.2-14 14.2z" fill="#463218" /><path d="M512 445c-1.4 0-3-0.2-4.4-0.8l-14.2-4.8c-70.4-23.4-110.2-98-90.4-169.6l1.8-6.4c2-7.4 9.8-11.8 17.2-9.8 7.4 2 11.8 9.8 9.8 17.2l-1.8 6.4c-15.8 57.2 16 116.8 72.4 135.6l14.2 4.8c7.4 2.4 11.2 10.4 8.8 17.8-2 5.8-7.6 9.6-13.4 9.6zM512 548.2c-55.2 0-107.4-29.2-136.4-76.2l-20.8-33.8c-4-6.6-2-15.2 4.6-19.2s15.2-2 19.2 4.6l20.8 33.8c23.8 38.8 67 62.8 112.6 62.8 7.8 0 14 6.2 14 14s-6.2 14-14 14z" fill="#463218" /><path d="M512 445c-5.8 0-11.4-3.8-13.2-9.6-2.4-7.4 1.6-15.2 8.8-17.8l14.2-4.8c56.2-18.8 88-78.4 72.4-135.6l-1.8-6.4c-2-7.4 2.4-15.2 9.8-17.2s15.2 2.4 17.2 9.8l1.8 6.4c19.6 71.6-20 146-90.4 169.6l-14.2 4.8c-1.6 0.4-3.2 0.8-4.6 0.8zM512 548.2c-7.8 0-14-6.2-14-14s6.2-14 14-14c45.6 0 88.6-24 112.6-62.8l20.8-33.8c4-6.6 12.6-8.6 19.2-4.6s8.6 12.6 4.6 19.2L648.4 472c-29 47-81.2 76.2-136.4 76.2z" fill="#463218" /><path d="M684.2 382.2l-19.6-4.2c5.6-26-13.4-53.2-13.6-53.4l16.2-11.6c1 1.2 24.6 34.4 17 69.2z" fill="#FFFFFF" /></svg>