<svg id="Layer_1" data-name="Layer 1" xmlns="http://www.w3.org/2000/svg" viewBox="0 0 500 500"><defs><style>.cls-1{fill:#53770e;}.cls-2{fill:#445b0c;}.cls-3{fill:#5d8715;}.cls-4{fill:#679b16;}.cls-5{fill:#c8e283;}.cls-6{fill:none;stroke:#000;stroke-linecap:round;stroke-linejoin:round;stroke-width:15px;}</style></defs><title>lettuce</title><path class="cls-1" d="M324,160.54c18.87-59.13,69.64-80.66,103.11-85.21-9.71-32.25-45.72-63.11-61.91-66.51-20.27-4.26-31.08,5.61-70.44,29.2-9,5.39-16.72,13.58-23.31,23a30.48,30.48,0,0,1,2.21,10.24C275.13,106.09,328.73,120.43,324,160.54Z"/><path class="cls-2" d="M310.42,123.73c8.86,10.27,15.33,21.71,13.53,36.81,18.87-59.13,69.64-80.66,103.11-85.21-2.76-9.17-7.65-18.22-13.6-26.57-22.14,4.77-45.27,13.6-64.23,22.51C327,81.74,324.17,102.08,310.42,123.73Z"/><path class="cls-3" d="M273.61,71.27c-1.52-34.83-57-44.35-86-57.89s-55.43,10.76-75.4,34.7c-8.33,10-11.37,22.66-12.08,34,29.37,10.69,61.67,33.9,75.88,78.42,8,25.08,21.66,37.43,32.73,51.42-.92-30.67,1.14-56.86,1.14-56.86S246,212.65,263,308.27h0c4.55-1.8,9.2-6.17,13.8-12.39a231.24,231.24,0,0,1-2.9-24.23C270,210,308.07,210.28,324,160.54,328.73,120.43,275.13,106.09,273.61,71.27Z"/><path class="cls-1" d="M263,308.27h0c4.55-1.8,9.2-6.17,13.8-12.39a231.24,231.24,0,0,1-2.9-24.23C270,210,308.07,210.28,324,160.54c1.8-15.1-4.67-26.54-13.53-36.81a100,100,0,0,1-22.28,25C264.17,168,251,209,244.77,235.22A542.07,542.07,0,0,1,263,308.27Z"/><path class="cls-4" d="M486.26,171.8c-18.14-46.72-15.91-98.25-47.94-97.41S345.09,94.29,324,160.54c-15.88,49.74-54,49.41-50.06,111.11,2,31.43,11.53,62.83,18.72,82.66,4.88-17.83,10.39-35.29,16.94-51C342.19,225.25,415.64,210,415.64,210s-78.29,60-95.37,162.69c11.72-3.09,29-9.74,52.73-23.84,37-22,25-55.14,60.08-69.16S504.41,218.53,486.26,171.8Z"/><path class="cls-3" d="M486.26,171.8c-18.14-46.72-15.91-98.25-47.94-97.41-1.74,0-3.56.15-5.45.3,5.8,32.93,13.46,82.84,10.39,102-4.75,29.68-56,136.63-123,196,11.72-3.09,29-9.74,52.73-23.84,37-22,25-55.14,60.08-69.16S504.41,218.53,486.26,171.8Z"/><path class="cls-4" d="M84.36,210s73.45,15.24,106.09,93.34c6.55,15.67,12.06,33.13,16.94,51,7.19-19.83,16.72-51.23,18.72-82.66,3.92-61.7-34.18-61.37-50.06-111.11C154.91,94.29,93.72,75.23,61.68,74.39s-29.8,50.69-47.94,97.41,18.14,93.88,53.18,107.89S90,326.83,127,348.85c23.69,14.1,41,20.75,52.73,23.84C162.65,270,84.36,210,84.36,210Z"/><path class="cls-5" d="M190.45,303.35C157.81,225.25,84.36,210,84.36,210S164,271,180.15,375.25C196.12,478.08,250,492.14,250,492.14,228,474.38,219.05,371.8,190.45,303.35Z"/><path class="cls-5" d="M415.64,210s-73.45,15.24-106.09,93.34C281,371.8,272,474.38,250,492.14c0,0,53.88-14.06,69.85-116.89C336,271,415.64,210,415.64,210Z"/><path class="cls-5" d="M209.92,155.1s-2.06,26.19-1.14,56.86c10.89,13.76,19.28,29.1,17.33,59.69-.45,7.06-1.28,14.12-2.38,21.05,15.9,28.11,20.24,137.77,21.42,193.9a24.76,24.76,0,0,0,4.85,5.54c7.93-6.4,14.17-23.86,20.25-46.77C282.18,270.23,209.92,155.1,209.92,155.1Z"/><path class="cls-6" d="M190.45,303.35C157.81,225.25,84.36,210,84.36,210S164,271,180.15,375.25C196.12,478.08,250,492.14,250,492.14,228,474.38,219.05,371.8,190.45,303.35Z"/><path class="cls-6" d="M84.36,210s73.45,15.24,106.09,93.34c6.55,15.67,12.06,33.13,16.94,51,7.19-19.83,16.72-51.23,18.72-82.66,3.92-61.7-34.18-61.37-50.06-111.11C154.91,94.29,93.72,75.23,61.68,74.39s-29.8,50.69-47.94,97.41,18.14,93.88,53.18,107.89S90,326.83,127,348.85c23.69,14.1,41,20.75,52.73,23.84C162.65,270,84.36,210,84.36,210Z"/><path class="cls-6" d="M415.64,210s-73.45,15.24-106.09,93.34C281,371.8,272,474.38,250,492.14c0,0,53.88-14.06,69.85-116.89C336,271,415.64,210,415.64,210Z"/><path class="cls-6" d="M486.26,171.8c-18.14-46.72-15.91-98.25-47.94-97.41S345.09,94.29,324,160.54c-15.88,49.74-54,49.41-50.06,111.11,2,31.43,11.53,62.83,18.72,82.66,4.88-17.83,10.39-35.29,16.94-51C342.19,225.25,415.64,210,415.64,210s-78.29,60-95.37,162.69c11.72-3.09,29-9.74,52.73-23.84,37-22,25-55.14,60.08-69.16S504.41,218.53,486.26,171.8Z"/><path class="cls-6" d="M209.92,155.1s-2.06,26.19-1.14,56.86c10.89,13.76,19.28,29.1,17.33,59.69-.45,7.06-1.28,14.12-2.38,21.05,15.9,28.11,20.24,137.77,21.42,193.9a24.76,24.76,0,0,0,4.85,5.54c7.93-6.4,14.17-23.86,20.25-46.77C282.18,270.23,209.92,155.1,209.92,155.1Z"/><path class="cls-6" d="M324,160.54c18.87-59.13,69.64-80.66,103.11-85.21-9.71-32.25-45.72-63.11-61.91-66.51-20.27-4.26-31.08,5.61-70.44,29.2-9,5.39-16.72,13.58-23.31,23a30.48,30.48,0,0,1,2.21,10.24C275.13,106.09,328.73,120.43,324,160.54Z"/><path class="cls-6" d="M273.61,71.27c-1.52-34.83-57-44.35-86-57.89s-55.43,10.76-75.4,34.7c-8.33,10-11.37,22.66-12.08,34,29.37,10.69,61.67,33.9,75.88,78.42,8,25.08,21.66,37.43,32.73,51.42-.92-30.67,1.14-56.86,1.14-56.86S246,212.65,263,308.27h0c4.55-1.8,9.2-6.17,13.8-12.39a231.24,231.24,0,0,1-2.9-24.23C270,210,308.07,210.28,324,160.54,328.73,120.43,275.13,106.09,273.61,71.27Z"/></svg>