<svg id="Layer_1" data-name="Layer 1" xmlns="http://www.w3.org/2000/svg" viewBox="0 0 500 500"><defs><style>.cls-1{fill:#8bba49;}.cls-2{fill:#7ba824;}.cls-3{fill:#679b16;}.cls-4{fill:#557713;}.cls-5,.cls-6{fill:none;stroke-linecap:round;stroke-linejoin:round;stroke-width:15px;}.cls-5{stroke:#2e540e;}.cls-6{stroke:#000;}</style></defs><title>okra</title><path class="cls-1" d="M349.89,189.86l0,0c21-16.72,26-39.27,24.6-60.14A99,99,0,0,0,304.58,42c-20-6-43.13-6.18-64.12,10.54,0,0,37.11,16.57,69.34,57S349.89,189.86,349.89,189.86Z"/><path class="cls-2" d="M374.51,129.75A99,99,0,0,0,334.59,57a98.37,98.37,0,0,1,8,32.61c1.12,16.45-1.78,33.93-13.32,48.78,16.14,28.62,20.64,51.43,20.64,51.43l0,0C370.9,173.17,375.93,150.62,374.51,129.75Z"/><path class="cls-1" d="M340.2,61.52A99.71,99.71,0,0,1,360.78,86a286.44,286.44,0,0,0,36-38.18A16,16,0,1,0,371.7,28,255,255,0,0,1,340.2,61.52Z"/><path class="cls-3" d="M8.61,354.25s133.62,3.53,341.28-164.39c0,0-7.85-39.86-40.09-80.32s-69.34-57-69.34-57C30.41,217.43,8.61,354.25,8.61,354.25Z"/><path class="cls-4" d="M349.89,189.86s-4.3-21.76-19.53-49.43c-34.24,28.2-127,98.93-321.75,213.82C8.61,354.25,142.23,357.78,349.89,189.86Z"/><path class="cls-5" d="M282.71,81.2S159,166.59,66.33,288.72"/><path class="cls-5" d="M329.48,138.82s-54.92,49.47-145.65,108.56"/><path class="cls-6" d="M8.61,354.25s133.62,3.53,341.28-164.39c0,0-7.85-39.86-40.09-80.32s-69.34-57-69.34-57C30.41,217.43,8.61,354.25,8.61,354.25Z"/><path class="cls-6" d="M349.89,189.86l0,0c21-16.72,26-39.27,24.6-60.14A99,99,0,0,0,304.58,42c-20-6-43.13-6.18-64.12,10.54,0,0,37.11,16.57,69.34,57S349.89,189.86,349.89,189.86Z"/><path class="cls-6" d="M340.2,61.52A99.71,99.71,0,0,1,360.78,86a286.44,286.44,0,0,0,36-38.18A16,16,0,1,0,371.7,28,255,255,0,0,1,340.2,61.52Z"/><path class="cls-1" d="M443.18,307l0,0c21-16.72,26-39.27,24.6-60.14a99,99,0,0,0-69.93-87.77c-20-6.05-43.13-6.18-64.12,10.55,0,0,37.11,16.56,69.34,57S443.18,307,443.18,307Z"/><path class="cls-2" d="M467.8,246.83a99,99,0,0,0-39.93-72.71,97.88,97.88,0,0,1,8,32.61c1.12,16.45-1.77,33.93-13.31,48.79C438.68,284.13,443.18,307,443.18,307l0,0C464.18,290.25,469.22,267.7,467.8,246.83Z"/><path class="cls-1" d="M433.48,178.6a99.36,99.36,0,0,1,20.58,24.46,286.56,286.56,0,0,0,36-38.19A16,16,0,0,0,465,145.1,253.12,253.12,0,0,1,433.48,178.6Z"/><path class="cls-3" d="M101.89,471.33S235.52,474.86,443.18,307c0,0-7.86-39.87-40.09-80.33s-69.34-57-69.34-57C123.7,334.51,101.89,471.33,101.89,471.33Z"/><path class="cls-4" d="M443.18,307s-4.3-21.77-19.54-49.44c-34.23,28.2-127,98.93-321.75,213.82C101.89,471.33,235.52,474.86,443.18,307Z"/><path class="cls-6" d="M443.18,307l0,0c21-16.72,26-39.27,24.6-60.14a99,99,0,0,0-69.93-87.77c-20-6.05-43.13-6.18-64.12,10.55,0,0,37.11,16.56,69.34,57S443.18,307,443.18,307Z"/><path class="cls-6" d="M433.48,178.6a99.36,99.36,0,0,1,20.58,24.46,286.56,286.56,0,0,0,36-38.19A16,16,0,0,0,465,145.1,253.12,253.12,0,0,1,433.48,178.6Z"/><path class="cls-5" d="M376,198.28S252.26,283.67,159.62,405.8"/><path class="cls-5" d="M422.76,255.91s-54.91,49.46-145.65,108.55"/><path class="cls-6" d="M101.89,471.33S235.52,474.86,443.18,307c0,0-7.86-39.87-40.09-80.33s-69.34-57-69.34-57C123.7,334.51,101.89,471.33,101.89,471.33Z"/></svg>